<?xml version="1.0" standalone="no"?><!DOCTYPE svg PUBLIC "-//W3C//DTD SVG 1.1//EN" "http://www.w3.org/Graphics/SVG/1.1/DTD/svg11.dtd"><svg t="1599043353680" class="icon" viewBox="0 0 1171 1024" version="1.1" xmlns="http://www.w3.org/2000/svg" p-id="9747" xmlns:xlink="http://www.w3.org/1999/xlink" width="1171" height="1024"><defs><style type="text/css"></style></defs><path d="M1147.757714 456.557714l-448.658285-410.258285c-30.72-29.842286-71.094857-46.299429-114.029715-46.299429s-83.309714 16.457143-114.029714 46.299429l-448.658286 410.258285a66.56 66.56 0 0 0-5.924571 93.842286 66.56 66.56 0 0 0 93.842286 5.851429l449.974857-411.574858 3.072-2.852571a30.72 30.72 0 0 1 43.300571 0l453.046857 414.427429a66.340571 66.340571 0 0 0 93.842286-5.851429 66.413714 66.413714 0 0 0-5.778286-93.842286z m-599.698285-188.050285l-401.554286 363.081142v339.236572c0 29.257143 23.771429 53.174857 53.248 53.174857h279.04v-159.451429c0-29.403429 23.771429-53.321143 53.248-53.321142h106.276571c29.330286 0 53.174857 23.844571 53.174857 53.321142v159.451429h279.113143a53.248 53.248 0 0 0 53.248-53.174857v-339.236572l-401.554285-363.081142a52.370286 52.370286 0 0 0-74.24 0z" p-id="9748" fill="#d81e06"></path></svg>