<?xml version="1.0" standalone="no"?><!DOCTYPE svg PUBLIC "-//W3C//DTD SVG 1.1//EN" "http://www.w3.org/Graphics/SVG/1.1/DTD/svg11.dtd"><svg t="1599128826530" class="icon" viewBox="0 0 1024 1024" version="1.1" xmlns="http://www.w3.org/2000/svg" p-id="11586" xmlns:xlink="http://www.w3.org/1999/xlink" width="1024" height="1024"><defs><style type="text/css"></style></defs><path d="M310.848 640a1759.136 1759.136 0 0 0 54.672 68.08c-89.088 19.28-148.608 54.224-148.608 84.512 0 44.672 129.12 99.424 291.664 99.424 162.528 0 291.648-54.752 291.648-99.424 0-30.288-59.52-65.232-148.608-84.512A1824.416 1824.416 0 0 0 706.304 640c100.096 29.696 166.832 83.248 166.832 152.592 0 109.04-164.72 178.832-364.56 178.832C308.72 971.424 144 901.632 144 792.592c0-69.344 66.752-122.896 166.848-152.592z" fill="" p-id="11587"></path><path d="M838.864 380.56c0 113.536-94.8 261.36-279.408 441.856a74.896 74.896 0 0 1-104.128-0.064C270.784 641.92 176 494.08 176 380.56 176 197.072 324.208 48 507.424 48 690.64 48 838.88 197.072 838.88 380.56z m-73.648 0c0-144.32-115.744-260.704-257.792-260.704-142.048 0-257.776 116.464-257.776 260.704 0 88.88 86.16 223.04 257.776 390.944 171.68-167.84 257.792-302.064 257.792-390.944z" fill="" p-id="11588"></path><path d="M416 435.44a99.424 99.424 0 1 0 198.864 0.016A99.424 99.424 0 0 0 416 435.44z" fill="" p-id="11589"></path></svg>