<svg t="1767523207567" class="icon" viewBox="0 0 1024 1024" version="1.1" xmlns="http://www.w3.org/2000/svg" p-id="21293" width="120" height="120"><path d="M832 960H192c-70.692 0-128-57.308-128-128l32-192c8.889-53.336 42.768-106.663 94.725-122.957 10.451 20.487 22.264 40.161 35.049 58.957H224c-35.346 0-52.333 20.667-64 64l-32 192c0 35.346 28.654 64 64 64h640c35.346 0 64-28.654 64-64l-32-192c-8.333-37-28.654-64-64-64h-1.346c12.67-18.764 24.382-38.418 34.745-58.911C885.204 533.437 918.841 586.714 928 640l32 192c0 70.692-57.308 128-128 128zM511.99 768.01s-304-169.21-304-422.4C208 196 344.095 64.011 511.987 64.011 679.883 64.011 816 196 815.99 345.61c-1.185 256.282-304 422.4-304 422.4z m0-640.001C392 128.018 272.009 221.616 272 356.84 272 554.474 512 704 512 704s240-149.526 240-347.16C751.411 221.618 632 128 511.99 128.009zM512 480c-70.693 0-128-57.308-128-128 0-70.693 57.307-128 128-128 70.692 0 128 57.308 128 128 0 70.692-57.308 128-128 128z m0-192c-35.346 0-64 28.654-64 64s28.654 64 64 64 64-28.654 64-64-28.654-64-64-64z" p-id="21294" fill="#707070"></path></svg>