<svg t="1767523041717" class="icon" viewBox="0 0 1024 1024" version="1.1" xmlns="http://www.w3.org/2000/svg" p-id="9086" width="120" height="120"><path d="M965.2 893.5c-4-12.2-10.1-25.6-15.6-37.3-0.7-1.6-1.5-3.3-2.3-5 46.7-51.1 72.2-115.2 72.2-182.6 0-38.8-8.4-76.4-24.8-111.8-15.8-33.9-38.4-64.4-67.1-90.4-45.4-41.3-102.4-68.1-164.1-78-3.1-38.2-13-75.2-29.4-110.5-19.5-41.8-47.2-79.2-82.6-111.3C579.5 101 483.8 65 382.3 65s-197.2 36-269.2 101.5c-35.3 32.1-63.1 69.6-82.6 111.3C10.2 321.4 0 367.6 0 415.2c0 84.6 32.7 165 92.5 228.5-1.7 3.8-3.6 7.9-5.2 11.4-6.7 14.6-14.4 31.2-19.2 46.2-3.3 10-5 18.4-5.3 25.8-1 22.2 10.5 33.4 17.5 38.1 9.2 6.2 19.7 8.5 30.3 8.5 12.6 0 25.5-3.2 36.6-6.6 18.8-5.7 38.9-14.3 56.6-21.9 7.6-3.3 17.3-7.4 23.6-9.8 48.9 19.9 100.9 30 155 30 11.8 0 23.5-0.5 35.2-1.5 2.1 5.5 4.4 11 7 16.4 15.8 33.9 38.4 64.4 67.1 90.4 58.4 53.1 135.8 82.3 218 82.3 42.8 0 84.2-7.8 123-23.3 4.7 1.9 11 4.5 16.1 6.7 27.6 11.8 54.1 23.1 76.6 23.1 10.1 0 19.5-2.3 27.7-7.9 5.4-3.6 17.8-14.4 16.8-36-0.4-6.4-1.9-13.4-4.7-22.1zM424.3 556.8c-16.5 35.4-24.8 73-24.8 111.8 0 2.2 0 4.3 0.1 6.5v1.2c0.1 1.9 0.1 3.7 0.2 5.6 0 0.8 0.1 1.6 0.1 2.3 0.1 1.6 0.2 3.1 0.3 4.7l0.3 3.6c0 0.4 0.1 0.7 0.1 1.1 0.2 2.5 0.5 4.9 0.8 7.4-6.2 0.3-12.6 0.5-19.1 0.5-48.6 0-95.2-9.6-138.6-28.5-16.7-7.3-31.9-0.8-65.2 13.5-13.6 5.8-29 12.4-42.8 17.1 3.5-8.1 7.2-16.1 9.7-21.6 4.1-9 8-17.5 10.7-24.4 1.9-5 3.2-9 3.9-12.6 3.8-18.4-5.4-29.5-9.5-33.5-55.9-53.3-86.6-123-86.6-196.2 0-75.9 32.7-147.4 92.1-201.3 60.3-54.7 140.6-84.9 226.2-84.9s165.9 30.2 226.2 84.9c51.2 46.6 82.6 106.2 90.3 170.4-0.8 0-1.6 0.1-2.4 0.1-1.1 0-2.3 0.1-3.4 0.1-1.4 0.1-2.7 0.1-4.1 0.2-1.1 0.1-2.3 0.1-3.4 0.2-1.3 0.1-2.7 0.2-4 0.3-1.1 0.1-2.3 0.2-3.4 0.3-1.3 0.1-2.7 0.3-4 0.4-1.1 0.1-2.2 0.2-3.4 0.4-1.4 0.2-2.7 0.3-4.1 0.5-1.1 0.1-2.2 0.3-3.3 0.4-1.4 0.2-2.7 0.4-4.1 0.6-1.1 0.2-2.1 0.3-3.2 0.5-1.4 0.2-2.8 0.5-4.2 0.7-1 0.2-2 0.3-3 0.5l-4.5 0.9c-0.9 0.2-1.8 0.3-2.7 0.5-1.8 0.4-3.7 0.8-5.5 1.2-0.6 0.1-1.1 0.2-1.7 0.4-2.4 0.5-4.7 1.1-7.1 1.7l-2.4 0.6c-1.6 0.4-3.1 0.8-4.7 1.2-1 0.3-1.9 0.5-2.9 0.8-1.4 0.4-2.8 0.8-4.1 1.2l-3 0.9-3.9 1.2c-1 0.3-2.1 0.7-3.1 1-1.3 0.4-2.5 0.8-3.8 1.3-1.1 0.4-2.1 0.7-3.1 1.1-1.2 0.4-2.5 0.9-3.7 1.3-1.1 0.4-2.1 0.8-3.1 1.2-1.2 0.5-2.4 0.9-3.6 1.4-1 0.4-2.1 0.9-3.1 1.3l-3.6 1.5c-1 0.4-2.1 0.9-3.1 1.4-1.2 0.5-2.3 1-3.5 1.6-1 0.5-2.1 0.9-3.1 1.4-1.2 0.5-2.3 1.1-3.5 1.6-1 0.5-2 1-3.1 1.5-1.1 0.6-2.3 1.1-3.4 1.7-1 0.5-2 1-3 1.6-1.1 0.6-2.3 1.2-3.4 1.8-1 0.5-2 1.1-3 1.6-1.1 0.6-2.2 1.2-3.3 1.9-1 0.6-1.9 1.1-2.9 1.7-1.1 0.6-2.2 1.3-3.3 2-1 0.6-1.9 1.1-2.9 1.7l-3.3 2.1c-0.9 0.6-1.9 1.2-2.8 1.8l-3.3 2.1-2.7 1.8c-1.1 0.7-2.2 1.5-3.3 2.3-0.9 0.6-1.8 1.2-2.7 1.9l-3.3 2.4c-0.9 0.6-1.7 1.2-2.6 1.9-1.1 0.8-2.2 1.7-3.3 2.5-0.8 0.6-1.6 1.2-2.4 1.9-1.1 0.9-2.3 1.8-3.4 2.7-0.7 0.6-1.5 1.2-2.2 1.8-1.2 1-2.5 2.1-3.7 3.1l-1.8 1.5-5.4 4.8c-28.7 26.1-51.3 56.5-67.1 90.4z m464.6 262.7c-4.1 3.9-13.1 14.8-9.5 32.7 0.7 3.3 1.8 6.8 3.4 11.1 2.2 5.7 5.4 12.5 8.7 19.8 0.4 0.8 0.8 1.6 1.2 2.6-7.3-2.9-14.2-5.9-18.8-7.9-27.3-11.7-41.1-17.6-56.9-10.7-33.6 14.6-69.7 22.1-107.3 22.1-116.1 0-213.6-72.5-239.3-169.6-0.3-1.1-0.6-2.2-0.9-3.4l-0.6-2.4c-0.4-1.7-0.7-3.3-1.1-5-0.1-0.3-0.1-0.6-0.2-0.9-0.4-2.1-0.8-4.2-1.2-6.2 0-0.3-0.1-0.5-0.1-0.8-0.3-1.8-0.6-3.6-0.8-5.4-0.1-0.5-0.1-1-0.2-1.6-0.2-1.5-0.4-3.1-0.5-4.6-0.1-0.6-0.1-1.2-0.2-1.8-0.1-1.5-0.3-2.9-0.4-4.4 0-0.6-0.1-1.3-0.1-1.9-0.1-1.5-0.2-3-0.2-4.5 0-0.6-0.1-1.2-0.1-1.8-0.1-2.1-0.1-4.1-0.1-6.2 0-121.6 110.3-220.5 245.9-220.5 1.9 0 3.8 0 5.6 0.1 0.9 0 1.9 0.1 2.8 0.1 0.9 0 1.7 0.1 2.6 0.1 1.2 0 2.4 0.1 3.6 0.2 0.6 0 1.1 0.1 1.7 0.1 1.3 0.1 2.7 0.2 4 0.3 126.1 9.3 225.6 104.3 225.6 219.7 0 56.1-23.6 109.7-66.6 150.7z" fill="#707070" p-id="9087"></path><path d="M623.6 599.6m-32 0a32 32 0 1 0 64 0 32 32 0 1 0-64 0Z" fill="#707070" p-id="9088"></path><path d="M800.6 599.6m-32 0a32 32 0 1 0 64 0 32 32 0 1 0-64 0Z" fill="#707070" p-id="9089"></path><path d="M273.7 302.1m-48 0a48 48 0 1 0 96 0 48 48 0 1 0-96 0Z" fill="#707070" p-id="9090"></path><path d="M491.2 302.1m-48 0a48 48 0 1 0 96 0 48 48 0 1 0-96 0Z" fill="#707070" p-id="9091"></path></svg>