<?xml version="1.0" standalone="no"?><!DOCTYPE svg PUBLIC "-//W3C//DTD SVG 1.1//EN" "http://www.w3.org/Graphics/SVG/1.1/DTD/svg11.dtd"><svg t="1600158078099" class="icon" viewBox="0 0 1024 1024" version="1.1" xmlns="http://www.w3.org/2000/svg" p-id="22098" width="1024" height="1024"><path d="M901.879 549.462H702.066c-10.924 0-20.485 7.1-23.912 17.472-17.327 52.438-58.78 93.893-111.219 111.22-10.372 3.427-17.472 12.99-17.472 23.912V901.88c0 22.545 27.26 33.836 43.201 17.894l327.11-327.11c15.941-15.943 4.651-43.202-17.895-43.202zM566.934 345.846c52.438 17.327 93.893 58.78 111.22 111.22 3.426 10.372 12.988 17.472 23.91 17.472H901.88c22.545 0 33.836-27.259 17.894-43.201l-327.11-327.11c-15.942-15.942-43.2-4.651-43.2 17.894v199.814c0 10.923 7.099 20.484 17.471 23.91zM457.066 678.153c-52.438-17.327-93.893-58.78-111.22-111.22-3.427-10.372-12.99-17.472-23.912-17.472H122.12c-22.545 0-33.836 27.259-17.894 43.201l327.11 327.11c15.942 15.942 43.2 4.651 43.2-17.894V702.066c0.002-10.924-7.098-20.486-17.47-23.913zM431.337 104.226l-327.11 327.11c-15.942 15.942-4.651 43.2 17.894 43.2h199.814c10.924 0 20.485-7.099 23.912-17.471 17.327-52.438 58.78-93.893 111.219-111.22 10.372-3.427 17.472-12.99 17.472-23.912V122.12c0-22.545-27.259-33.836-43.201-17.894z" fill="#ffffff" p-id="22099"></path></svg>