<?xml version="1.0" standalone="no"?><!DOCTYPE svg PUBLIC "-//W3C//DTD SVG 1.1//EN" "http://www.w3.org/Graphics/SVG/1.1/DTD/svg11.dtd"><svg t="1599906902890" class="icon" viewBox="0 0 1024 1024" version="1.1" xmlns="http://www.w3.org/2000/svg" p-id="7085" xmlns:xlink="http://www.w3.org/1999/xlink" width="1024" height="1024"><defs><style type="text/css"></style></defs><path d="M85.333333 10.666667A74.666667 74.666667 0 0 0 10.666667 85.333333v853.333334A74.666667 74.666667 0 0 0 85.333333 1013.333333h853.333334a74.666667 74.666667 0 0 0 74.666666-74.666666V85.333333A74.666667 74.666667 0 0 0 938.666667 10.666667H85.333333z m650.666667 616.789333c0 36.821333-8.874667 70.122667-26.602667 99.648-17.813333 29.653333-43.861333 52.864-77.888 69.504-33.792 16.512-73.6 24.725333-119.317333 24.725333-54.869333 0-100.522667-11.242667-136.832-33.962666a191.936 191.936 0 0 1-62.997333-65.642667c-16.170667-27.456-24.362667-54.442667-24.362667-80.874667 0-16.810667 5.546667-31.509333 16.490667-43.605333 11.2-12.373333 25.749333-18.688 42.88-18.688 14.293333 0 26.688 5.034667 36.629333 14.933333 9.173333 9.109333 16.725333 22.122667 22.826667 38.912 6.570667 17.706667 13.653333 32.405333 21.12 44.053334 6.954667 10.816 16.810667 19.797333 29.717333 26.965333 12.650667 7.04 29.824 10.666667 51.584 10.666667 29.930667 0 53.76-7.338667 71.893333-21.866667 17.664-14.165333 26.218667-31.296 26.218667-52.16 0-16.64-4.544-29.653333-13.525333-39.530667-9.664-10.624-22.250667-18.816-37.888-24.533333-16.789333-6.144-39.466667-12.757333-67.968-19.776-39.296-9.898667-72.298667-21.504-99.050667-34.88-27.605333-13.802667-49.642667-32.746667-65.92-56.746667-16.554667-24.32-24.746667-54.314667-24.746667-89.706666 0-33.834667 8.64-64.085333 25.898667-90.56 17.28-26.496 42.24-46.805333 74.624-60.885334 31.957333-13.866667 69.269333-20.778667 111.936-20.778666 34.133333 0 63.872 4.586667 89.173333 13.866666 25.322667 9.237333 46.506667 21.632 63.445334 37.205334 16.853333 15.509333 29.312 31.936 37.269333 49.322666 7.936 17.365333 11.946667 34.496 11.946667 51.328 0 16.426667-5.44 31.36-16.149334 44.394667-11.157333 13.589333-25.578667 20.650667-42.496 20.650667-15.146667 0-27.392-4.330667-36.053333-13.312-7.36-7.616-14.933333-19.413333-23.125333-35.946667-9.173333-20.501333-20.053333-36.288-32.512-47.424-11.413333-10.197333-30.933333-15.616-58.816-15.616-25.877333 0-46.229333 5.973333-61.44 17.685333-14.698667 11.306667-21.653333 24.234667-21.653334 39.424 0 9.429333 2.304 17.28 6.869334 23.850667 4.949333 7.082667 11.861333 13.290667 20.842666 18.56 9.6 5.674667 19.264 10.069333 29.013334 13.226667 10.282667 3.370667 27.477333 8.32 51.306666 14.784 30.634667 7.722667 58.432 16.234667 83.349334 25.578666 25.472 9.536 47.274667 21.205333 65.365333 34.986667a145.984 145.984 0 0 1 43.434667 53.717333c10.389333 21.653333 15.509333 47.829333 15.509333 78.506667z" p-id="7086" data-spm-anchor-id="a313x.7781069.0.i0" class="selected"></path></svg>